<svg width="101" height="59" viewBox="0 0 101 59" fill="none" xmlns="http://www.w3.org/2000/svg">
<path d="M22.4621 21.1844C22.4621 24.4076 20.2115 26.5847 17.6073 26.5847C16.4402 26.5847 15.5443 26.1887 14.8778 25.476V25.9361C14.8778 26.2711 14.7111 26.397 14.3985 26.397L11.7104 26.376C11.4396 26.376 11.2733 26.2501 11.2733 26.0196V25.9567C11.2733 25.4546 12.0856 25.2439 12.0856 24.3451V14.0894C12.0856 13.1474 11.1274 13.0203 11.1274 12.4988V12.4335C11.1274 12.203 11.2315 12.0985 11.6063 11.931L14.2945 10.6754C14.7734 10.4449 15.1695 10.5708 15.1695 11.0939V16.9543C15.7528 16.4102 16.6069 16.1172 17.6073 16.1172C20.0231 16.116 22.4621 17.8979 22.4621 21.1844ZM19.42 22.4385C19.42 19.8013 18.5241 17.0172 16.858 17.0172C15.8994 17.0172 15.1703 17.8753 15.1703 19.1313V22.92C15.1703 24.3435 16.212 25.683 17.2955 25.683C18.6491 25.683 19.42 24.532 19.42 22.4385Z" fill="#66400F"/>
<path d="M23.6885 26.0182V25.9362C23.6885 25.4132 24.4803 25.2457 24.4803 24.3456V19.613C24.4803 18.692 23.6885 18.4619 23.6885 18.0014V17.9376C23.6885 17.7492 23.8552 17.6446 24.126 17.4981L26.7305 16.2001C27.2516 15.9491 27.5847 16.2421 27.5847 16.6191V24.3437C27.5847 25.2437 28.4597 25.4128 28.4597 25.9343V26.0182C28.4597 26.2277 28.2725 26.3746 27.9808 26.3746H24.1469C23.8761 26.3742 23.6885 26.2277 23.6885 26.0182ZM23.9802 12.9987C23.9802 11.9518 24.8138 11.1772 26.0431 11.1772C27.2725 11.1772 28.064 11.9518 28.064 12.9987C28.064 14.0678 27.2721 14.8408 26.0431 14.8408C24.8142 14.8408 23.9802 14.0658 23.9802 12.9987V12.9987Z" fill="#66400F"/>
<path d="M30.5841 22.9618V17.5414H29.6046C29.3547 17.5414 29.188 17.3739 29.188 17.1225V16.7661C29.188 16.4937 29.3338 16.3266 29.6046 16.3266H30.1257C31.2928 16.3266 32.1051 15.4891 32.3329 14.254C32.3956 13.94 32.5832 13.752 32.8126 13.752H33.2292C33.5205 13.752 33.6872 13.94 33.6872 14.254L33.7081 16.3266H36.1046C36.334 16.3266 36.5216 16.515 36.5216 16.7661V17.1225C36.5232 17.1779 36.5136 17.2331 36.4932 17.2847C36.4728 17.3363 36.4421 17.3831 36.4031 17.4223C36.364 17.4616 36.3174 17.4924 36.2661 17.5129C36.2147 17.5333 36.1598 17.543 36.1046 17.5414H33.7093V23.0058C33.7093 23.8433 34.1677 24.3457 34.7735 24.3457C35.6072 24.3457 36.0238 23.8852 36.1905 23.4037C36.4404 23.0474 36.9394 23.1317 36.9394 23.5293C36.9394 25.0363 35.8145 26.5854 33.7306 26.5854C31.8343 26.583 30.5841 25.3479 30.5841 22.9618Z" fill="#66400F"/>
<path d="M46.9171 23.4226C46.8131 24.6367 45.5628 26.5833 42.7706 26.5833C39.7081 26.5833 37.541 24.4482 37.541 21.2666C37.541 18.1895 39.833 16.1383 42.6461 16.1189C44.9795 16.098 46.627 17.2075 46.627 19.0491C46.627 20.5562 45.2518 21.7283 43.2933 22.0842C42.3765 22.2723 41.4802 22.2723 40.7313 22.2098C41.2728 23.5493 42.3355 24.4074 43.7316 24.4074C44.94 24.4074 45.8155 23.8423 46.2112 23.1933C46.4587 22.8786 46.9585 22.9831 46.9171 23.4226ZM40.3123 19.885C40.3105 20.3277 40.3523 20.7696 40.4372 21.204C41.0833 21.2436 41.8124 21.2246 42.354 21.0991C43.2294 20.9316 43.7915 20.3665 43.7915 18.9212C43.771 17.9166 43.1459 17.0796 42.25 17.0796C41.0833 17.0804 40.3123 18.2734 40.3123 19.885V19.885Z" fill="#66400F"/>
<path d="M52.1855 21.2876C52.1855 18.2545 54.6644 16.1162 57.5811 16.1162C60.7899 16.1162 63.1859 18.4188 63.1859 21.3909C63.1859 24.3631 60.9357 26.5821 57.8937 26.5821C54.539 26.5833 52.1855 24.1972 52.1855 21.2876ZM60.0615 22.6272C60.0615 20.3456 58.9362 17.0384 57.1653 17.0384C55.915 17.0384 55.2485 18.1075 55.2485 20.0945C55.2485 22.2296 56.3734 25.6623 58.2697 25.6623C59.3938 25.6623 60.0607 24.5532 60.0607 22.6272H60.0615Z" fill="#66400F"/>
<path d="M72.6221 13.4797C72.6221 13.9822 72.2473 14.5683 71.4555 14.5683C69.1843 14.5683 70.4969 11.9307 68.8722 11.9101C67.3716 11.9101 67.8718 14.7148 68.4134 16.3268H70.9553C71.0657 16.3271 71.1715 16.3713 71.2497 16.4497C71.3278 16.5281 71.3719 16.6344 71.3723 16.7453V17.1413C71.3723 17.3717 71.1847 17.5392 70.9553 17.5392H68.4969V24.342C68.4969 25.2421 69.5387 25.4111 69.5387 25.9326V26.0166C69.5387 26.226 69.372 26.3729 69.1445 26.3729H65.0796C64.8088 26.3729 64.6421 26.2264 64.6421 26.0166V25.9362C64.6421 25.4131 65.4758 25.2456 65.4758 24.3456V17.5416H63.9961C63.7462 17.5416 63.5586 17.3741 63.5586 17.1437V16.7477C63.5586 16.5176 63.7462 16.3292 63.9961 16.3292H65.4758V15.0074C65.4758 12.79 66.7465 11.0303 69.476 11.0303C71.2056 11.0307 72.6221 12.1612 72.6221 13.4797Z" fill="#66400F"/>
<path d="M21.587 36.437V41.9212C21.587 42.8002 22.3994 43.0097 22.3994 43.5122V43.5748C22.3994 43.8052 22.2535 43.9311 21.9828 43.9311H19.4208C19.15 43.9311 18.9415 43.7427 18.9415 43.4706V42.9681C18.2959 43.7427 17.2746 44.1406 16.1911 44.1406C13.6492 44.1406 11.2949 42.2566 11.2949 38.8865C11.2949 35.7884 13.5447 33.6743 16.212 33.6743C17.3996 33.6743 18.2959 34.0933 18.9415 34.7434V34.3229C18.9415 33.9269 19.2962 33.6949 19.8374 33.7998L22.0253 34.1764C22.317 34.2394 22.4628 34.4069 22.4628 34.6995V34.7624C22.4621 35.162 21.587 35.4114 21.587 36.437ZM18.649 41.0002V37.3176C18.649 35.8525 17.6073 34.5759 16.3779 34.5759C15.1068 34.5759 14.3153 35.706 14.2735 37.6526C14.1896 39.9532 15.1486 43.1772 16.8777 43.2398C17.7322 43.2398 18.649 42.4874 18.649 41.0002V41.0002Z" fill="#66400F"/>
<path d="M34.7942 38.74C34.7942 41.9845 32.5436 44.1406 29.9395 44.1406C28.9186 44.1406 28.1264 43.8476 27.5012 43.3241V46.4428C27.5012 47.3428 28.3766 47.5119 28.3766 48.0338V48.1173C28.3766 48.3478 28.189 48.4737 27.8974 48.4737H24.1261C23.8344 48.4737 23.6468 48.3482 23.6468 48.1173V48.0338C23.6468 47.5103 24.4596 47.3428 24.4596 46.4428V37.0234C24.4596 36.1654 23.501 36.1024 23.501 35.5583V35.4538C23.501 35.2443 23.6677 35.0768 23.918 34.9513L26.2506 33.8002C26.8339 33.5068 27.0424 33.7792 27.0424 34.1768L27.0215 35.0559C27.584 34.1768 28.6257 33.6743 29.9178 33.6743C32.3351 33.6743 34.7942 35.4328 34.7942 38.74ZM31.7313 39.996C31.7313 37.3584 30.835 34.5748 29.1894 34.5748C28.314 34.5748 27.6266 35.2653 27.5012 36.2699V40.2692C27.5012 41.9228 28.5225 43.2414 29.6269 43.2414C30.9603 43.2402 31.7313 42.0891 31.7313 39.996Z" fill="#66400F"/>
<path d="M47.0424 38.74C47.0424 41.9845 44.7922 44.1406 42.188 44.1406C41.1667 44.1406 40.3749 43.8476 39.7502 43.3241V46.4428C39.7502 47.3428 40.6252 47.5119 40.6252 48.0338V48.1173C40.6252 48.3478 40.4376 48.4737 40.1459 48.4737H36.3746C36.083 48.4737 35.8953 48.3482 35.8953 48.1173V48.0338C35.8953 47.5103 36.7081 47.3428 36.7081 46.4428V37.0234C36.7081 36.1654 35.7495 36.1024 35.7495 35.5583V35.4538C35.7495 35.2443 35.9162 35.0768 36.1661 34.9513L38.4995 33.8002C39.0833 33.5068 39.2918 33.7792 39.2918 34.1768L39.2709 35.0559C39.8333 34.1768 40.8751 33.6743 42.1667 33.6743C44.5841 33.6743 47.0424 35.4328 47.0424 38.74ZM43.9794 39.996C43.9794 37.3584 43.0839 34.5748 41.4379 34.5748C40.5625 34.5748 39.8751 35.2653 39.7502 36.2699V40.2692C39.7502 41.9228 40.771 43.2414 41.875 43.2414C43.2089 43.2402 43.9794 42.0891 43.9794 39.996Z" fill="#66400F"/>
<path d="M57.5416 40.9794C57.4372 42.1938 56.1873 44.1404 53.3951 44.1404C50.3322 44.1404 48.1655 42.0053 48.1655 38.8237C48.1655 35.7466 50.4571 33.6951 53.2702 33.6741C55.6036 33.6535 57.2511 34.7626 57.2511 36.6043C57.2511 38.1114 55.8763 39.2838 53.9174 39.6394C53.001 39.8279 52.1043 39.8279 51.3554 39.7653C51.897 41.1049 52.9596 41.963 54.3557 41.963C55.5638 41.963 56.4392 41.3975 56.8353 40.7489C57.0828 40.4353 57.583 40.5398 57.5416 40.9794ZM50.9364 37.4422C50.9348 37.8848 50.9766 38.3264 51.0614 38.7607C51.7074 38.8003 52.4366 38.7817 52.9781 38.6562C53.8535 38.4887 54.416 37.9237 54.416 36.4784C54.3951 35.4738 53.7704 34.6363 52.8741 34.6363C51.7074 34.6371 50.9364 35.8302 50.9364 37.4422Z" fill="#66400F"/>
<path d="M59.5811 40.5193V35.0976H58.6017C58.3518 35.0976 58.1851 34.9301 58.1851 34.6791V34.3227C58.1851 34.0507 58.3309 33.8832 58.6017 33.8832H59.1227C60.2894 33.8832 61.1018 33.0461 61.33 31.8111C61.3927 31.4971 61.5799 31.3086 61.8093 31.3086H62.2259C62.5176 31.3086 62.6843 31.4971 62.6843 31.8111L62.7052 33.8832H65.1013C65.3307 33.8832 65.5179 34.0717 65.5179 34.3227V34.6791C65.5195 34.7345 65.5099 34.7897 65.4895 34.8412C65.4691 34.8927 65.4385 34.9395 65.3995 34.9787C65.3605 35.0179 65.3139 35.0487 65.2626 35.0691C65.2113 35.0896 65.1564 35.0993 65.1013 35.0976H62.7052V40.562C62.7052 41.3991 63.1636 41.9016 63.7694 41.9016C64.6027 41.9016 65.0197 41.4415 65.186 40.9596C65.4363 40.6032 65.9349 40.6875 65.9349 41.0855C65.9349 42.5926 64.81 44.1416 62.7265 44.1416C60.831 44.1404 59.5811 42.9054 59.5811 40.5193Z" fill="#66400F"/>
<path d="M66.7695 43.5749V43.4913C66.7695 42.9678 67.5614 42.8003 67.5614 41.9003V37.17C67.5614 36.249 66.7695 36.0186 66.7695 35.558V35.4955C66.7695 35.307 66.9363 35.2021 67.2074 35.0556L69.8116 33.758C70.3327 33.5065 70.6657 33.7999 70.6657 34.1765V41.9003C70.6657 42.8003 71.5412 42.9694 71.5412 43.4913V43.5749C71.5412 43.7843 71.3535 43.9312 71.0619 43.9312H67.2279C66.9548 43.9308 66.7695 43.7843 66.7695 43.5749ZM67.0612 30.5554C67.0612 29.5088 67.8948 28.7339 69.1238 28.7339C70.3528 28.7339 71.145 29.5084 71.145 30.5554C71.145 31.6245 70.3532 32.3974 69.1238 32.3974C67.8944 32.3974 67.0592 31.6229 67.0592 30.5554H67.0612Z" fill="#66400F"/>
<path d="M73.6628 40.5193V35.0976H72.6818C72.4319 35.0976 72.2651 34.9301 72.2651 34.6791V34.3227C72.2651 34.0507 72.411 33.8832 72.6818 33.8832H73.2028C74.3695 33.8832 75.1823 33.0461 75.4101 31.8111C75.4727 31.4971 75.6604 31.3086 75.8894 31.3086H76.308C76.5992 31.3086 76.766 31.4971 76.766 31.8111L76.7872 33.8832H79.1853C79.4147 33.8832 79.6023 34.0717 79.6023 34.3227V34.6791C79.6039 34.7345 79.5942 34.7897 79.5738 34.8412C79.5534 34.8927 79.5227 34.9395 79.4836 34.9787C79.4446 35.0179 79.398 35.0487 79.3467 35.0691C79.2954 35.0896 79.2404 35.0993 79.1853 35.0976H76.7896V40.562C76.7896 41.3991 77.2476 41.9016 77.8538 41.9016C78.6875 41.9016 79.1041 41.4415 79.2708 40.9596C79.5207 40.6032 80.0197 40.6875 80.0197 41.0855C80.0197 42.5926 78.8948 44.1416 76.8109 44.1416C74.9131 44.1404 73.6628 42.9054 73.6628 40.5193Z" fill="#66400F"/>
<path d="M89.9962 40.9794C89.8922 42.1938 88.6419 44.1404 85.8497 44.1404C82.7868 44.1404 80.6201 42.0053 80.6201 38.8237C80.6201 35.7466 82.9121 33.6951 85.7248 33.6741C88.0586 33.6535 89.7057 34.7626 89.7057 36.6043C89.7057 38.1114 88.3305 39.2838 86.372 39.6394C85.4552 39.8279 84.5589 39.8279 83.81 39.7653C84.3516 41.1049 85.4142 41.963 86.8103 41.963C88.0187 41.963 88.8938 41.3975 89.2895 40.7489C89.5378 40.4353 90.038 40.5398 89.9962 40.9794ZM83.3914 37.4422C83.3896 37.8848 83.4314 38.3265 83.5163 38.7607C84.1624 38.8003 84.8915 38.7817 85.4331 38.6562C86.3085 38.4887 86.871 37.9237 86.871 36.4784C86.8501 35.4738 86.225 34.6363 85.3291 34.6363C84.1624 34.6371 83.3914 35.8302 83.3914 37.4422Z" fill="#66400F"/>
</svg>
