<svg width="101" height="59" viewBox="0 0 101 59" fill="none" xmlns="http://www.w3.org/2000/svg">
<path d="M22.4616 21.1844C22.4616 24.4076 20.211 26.5847 17.6068 26.5847C16.4397 26.5847 15.5438 26.1887 14.8773 25.476V25.9361C14.8773 26.2711 14.7106 26.397 14.398 26.397L11.7099 26.376C11.4391 26.376 11.2728 26.2501 11.2728 26.0196V25.9567C11.2728 25.4546 12.0851 25.2439 12.0851 24.3451V14.0894C12.0851 13.1474 11.127 13.0203 11.127 12.4988V12.4335C11.127 12.203 11.231 12.0985 11.6058 11.931L14.294 10.6754C14.7729 10.4449 15.169 10.5708 15.169 11.0939V16.9543C15.7523 16.4102 16.6065 16.1172 17.6068 16.1172C20.0226 16.116 22.4616 17.8979 22.4616 21.1844ZM19.4195 22.4385C19.4195 19.8013 18.5236 17.0172 16.8575 17.0172C15.899 17.0172 15.1698 17.8753 15.1698 19.1313V22.92C15.1698 24.3435 16.2115 25.683 17.295 25.683C18.6486 25.683 19.4195 24.532 19.4195 22.4385Z" fill="#FF7757"/>
<path d="M23.6885 26.018V25.936C23.6885 25.4129 24.4803 25.2454 24.4803 24.3454V19.6128C24.4803 18.6917 23.6885 18.4617 23.6885 18.0012V17.9374C23.6885 17.7489 23.8552 17.6444 24.126 17.4979L26.7305 16.1999C27.2516 15.9488 27.5847 16.2419 27.5847 16.6188V24.3434C27.5847 25.2435 28.4597 25.4125 28.4597 25.934V26.018C28.4597 26.2274 28.2725 26.3744 27.9808 26.3744H24.1469C23.8761 26.374 23.6885 26.2274 23.6885 26.018ZM23.9802 12.9985C23.9802 11.9515 24.8138 11.177 26.0431 11.177C27.2725 11.177 28.064 11.9515 28.064 12.9985C28.064 14.0676 27.2721 14.8405 26.0431 14.8405C24.8142 14.8405 23.9802 14.0656 23.9802 12.9985V12.9985Z" fill="#FF7757"/>
<path d="M30.5836 22.962V17.5415H29.6041C29.3542 17.5415 29.1875 17.374 29.1875 17.1226V16.7662C29.1875 16.4938 29.3333 16.3267 29.6041 16.3267H30.1252C31.2923 16.3267 32.1046 15.4892 32.3324 14.2542C32.3951 13.9402 32.5827 13.7521 32.8121 13.7521H33.2287C33.52 13.7521 33.6867 13.9402 33.6867 14.2542L33.7076 16.3267H36.1041C36.3335 16.3267 36.5211 16.5152 36.5211 16.7662V17.1226C36.5227 17.178 36.5131 17.2332 36.4927 17.2848C36.4723 17.3364 36.4417 17.3832 36.4026 17.4225C36.3635 17.4617 36.3169 17.4925 36.2656 17.513C36.2143 17.5334 36.1593 17.5432 36.1041 17.5415H33.7088V23.0059C33.7088 23.8434 34.1672 24.3459 34.773 24.3459C35.6067 24.3459 36.0233 23.8854 36.19 23.4039C36.4399 23.0475 36.9389 23.1318 36.9389 23.5294C36.9389 25.0364 35.814 26.5855 33.7301 26.5855C31.8338 26.5831 30.5836 25.3481 30.5836 22.962Z" fill="#FF7757"/>
<path d="M46.9171 23.4225C46.8131 24.6365 45.5628 26.5831 42.7706 26.5831C39.7081 26.5831 37.541 24.4481 37.541 21.2664C37.541 18.1894 39.833 16.1382 42.6461 16.1188C44.9795 16.0978 46.627 17.2073 46.627 19.049C46.627 20.5561 45.2518 21.7281 43.2933 22.0841C42.3765 22.2722 41.4802 22.2722 40.7313 22.2096C41.2729 23.5492 42.3355 24.4073 43.7316 24.4073C44.94 24.4073 45.8155 23.8422 46.2112 23.1932C46.4587 22.8784 46.9585 22.983 46.9171 23.4225ZM40.3123 19.8849C40.3105 20.3276 40.3523 20.7694 40.4373 21.2039C41.0833 21.2435 41.8124 21.2245 42.354 21.0989C43.2294 20.9314 43.7915 20.3664 43.7915 18.9211C43.771 17.9165 43.1459 17.0794 42.25 17.0794C41.0833 17.0802 40.3123 18.2733 40.3123 19.8849V19.8849Z" fill="#FF7757"/>
<path d="M52.1855 21.2873C52.1855 18.2542 54.6644 16.116 57.5812 16.116C60.79 16.116 63.1861 18.4185 63.1861 21.3907C63.1861 24.3628 60.9358 26.5819 57.8937 26.5819C54.5391 26.5831 52.1855 24.1969 52.1855 21.2873ZM60.0616 22.6269C60.0616 20.3453 58.9363 17.0382 57.1653 17.0382C55.9151 17.0382 55.2485 18.1073 55.2485 20.0943C55.2485 22.2294 56.3735 25.662 58.2698 25.662C59.3939 25.662 60.0608 24.5529 60.0608 22.6269H60.0616Z" fill="#FF7757"/>
<path d="M72.6222 13.4796C72.6222 13.9821 72.2474 14.5681 71.4555 14.5681C69.1844 14.5681 70.497 11.9306 68.8722 11.91C67.3717 11.91 67.8719 14.7147 68.4134 16.3267H70.9554C71.0658 16.327 71.1716 16.3711 71.2498 16.4496C71.3279 16.528 71.372 16.6343 71.3724 16.7452V17.1412C71.3724 17.3716 71.1848 17.5391 70.9554 17.5391H68.497V24.3419C68.497 25.2419 69.5388 25.411 69.5388 25.9325V26.0164C69.5388 26.2259 69.372 26.3728 69.1446 26.3728H65.0796C64.8089 26.3728 64.6421 26.2263 64.6421 26.0164V25.9361C64.6421 25.413 65.4758 25.2455 65.4758 24.3455V17.5415H63.9961C63.7462 17.5415 63.5586 17.374 63.5586 17.1435V16.7476C63.5586 16.5175 63.7462 16.329 63.9961 16.329H65.4758V15.0073C65.4758 12.7898 66.7465 11.0302 69.4761 11.0302C71.2056 11.0305 72.6222 12.161 72.6222 13.4796Z" fill="#FF7757"/>
<path d="M21.587 36.4372V41.9214C21.587 42.8004 22.3994 43.0099 22.3994 43.5124V43.575C22.3994 43.8054 22.2535 43.9313 21.9828 43.9313H19.4208C19.15 43.9313 18.9415 43.7428 18.9415 43.4708V42.9683C18.2959 43.7428 17.2746 44.1408 16.1911 44.1408C13.6492 44.1408 11.2949 42.2568 11.2949 38.8867C11.2949 35.7886 13.5447 33.6746 16.212 33.6746C17.3996 33.6746 18.2959 34.0935 18.9415 34.7437V34.3232C18.9415 33.9272 19.2962 33.6952 19.8374 33.8001L22.0253 34.1766C22.317 34.2396 22.4628 34.4071 22.4628 34.6997V34.7627C22.4621 35.1622 21.587 35.4117 21.587 36.4372ZM18.649 41.0004V37.3179C18.649 35.8528 17.6073 34.5762 16.3779 34.5762C15.1068 34.5762 14.3153 35.7063 14.2735 37.6529C14.1896 39.9534 15.1486 43.1774 16.8777 43.24C17.7322 43.24 18.649 42.4876 18.649 41.0004V41.0004Z" fill="#FF7757"/>
<path d="M34.7942 38.7397C34.7942 41.9843 32.5436 44.1404 29.9395 44.1404C28.9186 44.1404 28.1264 43.8473 27.5012 43.3239V46.4425C27.5012 47.3426 28.3766 47.5117 28.3766 48.0336V48.1171C28.3766 48.3476 28.189 48.4735 27.8974 48.4735H24.1261C23.8344 48.4735 23.6468 48.348 23.6468 48.1171V48.0336C23.6468 47.5101 24.4596 47.3426 24.4596 46.4425V37.0232C24.4596 36.1651 23.501 36.1022 23.501 35.5581V35.4536C23.501 35.2441 23.6677 35.0766 23.918 34.9511L26.2506 33.8C26.8339 33.5066 27.0424 33.779 27.0424 34.1766L27.0215 35.0556C27.584 34.1766 28.6257 33.6741 29.9178 33.6741C32.3351 33.6741 34.7942 35.4326 34.7942 38.7397ZM31.7313 39.9957C31.7313 37.3582 30.835 34.5745 29.1894 34.5745C28.314 34.5745 27.6266 35.2651 27.5012 36.2697V40.269C27.5012 41.9225 28.5225 43.2411 29.6269 43.2411C30.9603 43.2399 31.7313 42.0888 31.7313 39.9957Z" fill="#FF7757"/>
<path d="M47.0429 38.7397C47.0429 41.9843 44.7926 44.1404 42.1885 44.1404C41.1672 44.1404 40.3754 43.8473 39.7506 43.3239V46.4425C39.7506 47.3426 40.6257 47.5117 40.6257 48.0336V48.1171C40.6257 48.3476 40.438 48.4735 40.1464 48.4735H36.3751C36.0835 48.4735 35.8958 48.348 35.8958 48.1171V48.0336C35.8958 47.5101 36.7086 47.3426 36.7086 46.4425V37.0232C36.7086 36.1651 35.75 36.1022 35.75 35.5581V35.4536C35.75 35.2441 35.9167 35.0766 36.1666 34.9511L38.5 33.8C39.0837 33.5066 39.2922 33.779 39.2922 34.1766L39.2714 35.0556C39.8338 34.1766 40.8756 33.6741 42.1672 33.6741C44.5845 33.6741 47.0429 35.4326 47.0429 38.7397ZM43.9799 39.9957C43.9799 37.3582 43.0844 34.5745 41.4384 34.5745C40.563 34.5745 39.8756 35.2651 39.7506 36.2697V40.269C39.7506 41.9225 40.7715 43.2411 41.8755 43.2411C43.2093 43.2399 43.9799 42.0888 43.9799 39.9957Z" fill="#FF7757"/>
<path d="M57.5411 40.9794C57.4366 42.1938 56.1868 44.1404 53.3946 44.1404C50.3317 44.1404 48.165 42.0053 48.165 38.8237C48.165 35.7466 50.4566 33.6951 53.2697 33.6741C55.6031 33.6535 57.2506 34.7626 57.2506 36.6043C57.2506 38.1114 55.8758 39.2838 53.9169 39.6394C53.0005 39.8279 52.1038 39.8279 51.3549 39.7653C51.8965 41.1049 52.9591 41.963 54.3552 41.963C55.5632 41.963 56.4387 41.3975 56.8348 40.7489C57.0823 40.4353 57.5825 40.5398 57.5411 40.9794ZM50.9359 37.4422C50.9343 37.8848 50.9761 38.3264 51.0609 38.7607C51.7069 38.8003 52.4361 38.7817 52.9776 38.6562C53.853 38.4887 54.4155 37.9237 54.4155 36.4784C54.3946 35.4738 53.7699 34.6363 52.8736 34.6363C51.7069 34.6371 50.9359 35.8302 50.9359 37.4422Z" fill="#FF7757"/>
<path d="M59.5816 40.5193V35.0976H58.6022C58.3523 35.0976 58.1855 34.9301 58.1855 34.6791V34.3227C58.1855 34.0507 58.3314 33.8832 58.6022 33.8832H59.1232C60.2899 33.8832 61.1023 33.0461 61.3305 31.8111C61.3932 31.4971 61.5804 31.3086 61.8098 31.3086H62.2264C62.5181 31.3086 62.6848 31.4971 62.6848 31.8111L62.7057 33.8832H65.1017C65.3311 33.8832 65.5184 34.0717 65.5184 34.3227V34.6791C65.52 34.7345 65.5103 34.7897 65.49 34.8412C65.4696 34.8927 65.439 34.9395 65.4 34.9787C65.361 35.0179 65.3144 35.0487 65.2631 35.0691C65.2118 35.0896 65.1569 35.0993 65.1017 35.0976H62.7057V40.562C62.7057 41.3991 63.1641 41.9016 63.7699 41.9016C64.6031 41.9016 65.0202 41.4415 65.1865 40.9596C65.4368 40.6032 65.9354 40.6875 65.9354 41.0855C65.9354 42.5926 64.8105 44.1416 62.727 44.1416C60.8315 44.1404 59.5816 42.9054 59.5816 40.5193Z" fill="#FF7757"/>
<path d="M66.7695 43.575V43.4914C66.7695 42.968 67.5614 42.8005 67.5614 41.9004V37.1702C67.5614 36.2491 66.7695 36.0187 66.7695 35.5582V35.4956C66.7695 35.3071 66.9363 35.2022 67.2074 35.0557L69.8116 33.7581C70.3327 33.5066 70.6657 33.8001 70.6657 34.1766V41.9004C70.6657 42.8005 71.5411 42.9695 71.5411 43.4914V43.575C71.5411 43.7844 71.3535 43.9314 71.0619 43.9314H67.2279C66.9548 43.931 66.7695 43.7844 66.7695 43.575ZM67.0612 30.5555C67.0612 29.5089 67.8948 28.734 69.1238 28.734C70.3528 28.734 71.145 29.5085 71.145 30.5555C71.145 31.6246 70.3532 32.3975 69.1238 32.3975C67.8944 32.3975 67.0592 31.623 67.0592 30.5555H67.0612Z" fill="#FF7757"/>
<path d="M73.6623 40.5193V35.0976H72.6813C72.4314 35.0976 72.2646 34.9301 72.2646 34.6791V34.3227C72.2646 34.0507 72.4105 33.8832 72.6813 33.8832H73.2023C74.369 33.8832 75.1818 33.0461 75.4096 31.8111C75.4723 31.4971 75.6599 31.3086 75.8889 31.3086H76.3075C76.5987 31.3086 76.7655 31.4971 76.7655 31.8111L76.7868 33.8832H79.1848C79.4142 33.8832 79.6018 34.0717 79.6018 34.3227V34.6791C79.6034 34.7345 79.5937 34.7897 79.5733 34.8412C79.5529 34.8927 79.5222 34.9395 79.4831 34.9787C79.4441 35.0179 79.3975 35.0487 79.3462 35.0691C79.2949 35.0896 79.24 35.0993 79.1848 35.0976H76.7891V40.562C76.7891 41.3991 77.2471 41.9016 77.8533 41.9016C78.687 41.9016 79.1036 41.4415 79.2703 40.9596C79.5202 40.6032 80.0192 40.6875 80.0192 41.0855C80.0192 42.5926 78.8943 44.1416 76.8104 44.1416C74.9126 44.1404 73.6623 42.9054 73.6623 40.5193Z" fill="#FF7757"/>
<path d="M89.9962 40.9794C89.8922 42.1938 88.6419 44.1404 85.8497 44.1404C82.7868 44.1404 80.6201 42.0053 80.6201 38.8237C80.6201 35.7466 82.9121 33.6951 85.7248 33.6741C88.0586 33.6535 89.7057 34.7626 89.7057 36.6043C89.7057 38.1114 88.3305 39.2838 86.372 39.6394C85.4552 39.8279 84.5589 39.8279 83.81 39.7653C84.3516 41.1049 85.4142 41.963 86.8103 41.963C88.0188 41.963 88.8938 41.3975 89.2895 40.7489C89.5378 40.4353 90.038 40.5398 89.9962 40.9794ZM83.3914 37.4422C83.3896 37.8848 83.4314 38.3265 83.5163 38.7607C84.1624 38.8003 84.8916 38.7817 85.4331 38.6562C86.3085 38.4887 86.871 37.9237 86.871 36.4784C86.8501 35.4738 86.225 34.6363 85.3291 34.6363C84.1624 34.6371 83.3914 35.8302 83.3914 37.4422Z" fill="#FF7757"/>
</svg>
