<?xml version="1.0" encoding="UTF-8"?>
<svg xmlns="http://www.w3.org/2000/svg" xmlns:xlink="http://www.w3.org/1999/xlink" width="52px" height="30px" viewBox="0 0 51 30" version="1.1">
<g id="surface1">
<path style=" stroke:none;fill-rule:nonzero;fill:rgb(0%,0%,0%);fill-opacity:1;" d="M 11.34375 10.773438 C 11.34375 12.410156 10.207031 13.519531 8.890625 13.519531 C 8.300781 13.519531 7.847656 13.316406 7.511719 12.953125 L 7.511719 13.1875 C 7.511719 13.359375 7.429688 13.421875 7.269531 13.421875 L 5.914062 13.410156 C 5.777344 13.410156 5.691406 13.347656 5.691406 13.230469 L 5.691406 13.199219 C 5.691406 12.941406 6.101562 12.835938 6.101562 12.378906 L 6.101562 7.164062 C 6.101562 6.6875 5.617188 6.621094 5.617188 6.355469 L 5.617188 6.324219 C 5.617188 6.207031 5.671875 6.152344 5.859375 6.066406 L 7.21875 5.429688 C 7.460938 5.3125 7.660156 5.375 7.660156 5.644531 L 7.660156 8.621094 C 7.953125 8.34375 8.386719 8.195312 8.890625 8.195312 C 10.109375 8.195312 11.34375 9.101562 11.34375 10.773438 Z M 9.804688 11.410156 C 9.804688 10.070312 9.355469 8.652344 8.511719 8.652344 C 8.027344 8.652344 7.660156 9.089844 7.660156 9.730469 L 7.660156 11.65625 C 7.660156 12.378906 8.1875 13.058594 8.734375 13.058594 C 9.417969 13.058594 9.804688 12.472656 9.804688 11.410156 Z M 9.804688 11.410156 "/>
<path style=" stroke:none;fill-rule:nonzero;fill:rgb(0%,0%,0%);fill-opacity:1;" d="M 11.960938 13.230469 L 11.960938 13.1875 C 11.960938 12.921875 12.363281 12.835938 12.363281 12.378906 L 12.363281 9.972656 C 12.363281 9.503906 11.960938 9.386719 11.960938 9.152344 L 11.960938 9.121094 C 11.960938 9.027344 12.046875 8.972656 12.183594 8.898438 L 13.496094 8.238281 C 13.761719 8.109375 13.929688 8.261719 13.929688 8.453125 L 13.929688 12.378906 C 13.929688 12.835938 14.371094 12.921875 14.371094 13.1875 L 14.371094 13.230469 C 14.371094 13.335938 14.277344 13.410156 14.128906 13.410156 L 12.191406 13.410156 C 12.054688 13.410156 11.960938 13.335938 11.960938 13.230469 Z M 12.109375 6.609375 C 12.109375 6.078125 12.53125 5.683594 13.152344 5.683594 C 13.769531 5.683594 14.171875 6.078125 14.171875 6.609375 C 14.171875 7.15625 13.769531 7.546875 13.152344 7.546875 C 12.53125 7.546875 12.109375 7.152344 12.109375 6.609375 Z M 12.109375 6.609375 "/>
<path style=" stroke:none;fill-rule:nonzero;fill:rgb(0%,0%,0%);fill-opacity:1;" d="M 15.441406 11.675781 L 15.441406 8.921875 L 14.949219 8.921875 C 14.824219 8.921875 14.738281 8.835938 14.738281 8.707031 L 14.738281 8.527344 C 14.738281 8.386719 14.8125 8.304688 14.949219 8.304688 L 15.210938 8.304688 C 15.800781 8.304688 16.210938 7.878906 16.328125 7.25 C 16.359375 7.089844 16.453125 6.992188 16.570312 6.992188 L 16.777344 6.992188 C 16.925781 6.992188 17.011719 7.089844 17.011719 7.25 L 17.019531 8.304688 L 18.230469 8.304688 C 18.347656 8.304688 18.441406 8.398438 18.441406 8.527344 L 18.441406 8.707031 C 18.441406 8.765625 18.421875 8.820312 18.382812 8.859375 C 18.339844 8.898438 18.289062 8.921875 18.230469 8.921875 L 17.019531 8.921875 L 17.019531 11.699219 C 17.019531 12.125 17.253906 12.378906 17.558594 12.378906 C 17.980469 12.378906 18.191406 12.144531 18.273438 11.902344 C 18.402344 11.71875 18.652344 11.761719 18.652344 11.964844 C 18.652344 12.730469 18.085938 13.519531 17.03125 13.519531 C 16.074219 13.515625 15.441406 12.890625 15.441406 11.675781 Z M 15.441406 11.675781 "/>
<path style=" stroke:none;fill-rule:nonzero;fill:rgb(0%,0%,0%);fill-opacity:1;" d="M 23.691406 11.910156 C 23.636719 12.527344 23.007812 13.515625 21.597656 13.515625 C 20.050781 13.515625 18.957031 12.429688 18.957031 10.8125 C 18.957031 9.25 20.113281 8.207031 21.535156 8.195312 C 22.710938 8.1875 23.542969 8.75 23.542969 9.6875 C 23.542969 10.453125 22.851562 11.050781 21.859375 11.230469 C 21.398438 11.324219 20.945312 11.324219 20.566406 11.292969 C 20.839844 11.976562 21.378906 12.410156 22.082031 12.410156 C 22.691406 12.410156 23.132812 12.125 23.335938 11.792969 C 23.460938 11.632812 23.710938 11.6875 23.691406 11.910156 Z M 20.355469 10.113281 C 20.355469 10.335938 20.375 10.5625 20.417969 10.78125 C 20.746094 10.800781 21.113281 10.792969 21.386719 10.730469 C 21.828125 10.644531 22.113281 10.355469 22.113281 9.621094 C 22.101562 9.109375 21.785156 8.683594 21.335938 8.683594 C 20.746094 8.6875 20.355469 9.292969 20.355469 10.113281 Z M 20.355469 10.113281 "/>
<path style=" stroke:none;fill-rule:nonzero;fill:rgb(0%,0%,0%);fill-opacity:1;" d="M 26.351562 10.824219 C 26.351562 9.28125 27.601562 8.195312 29.074219 8.195312 C 30.695312 8.195312 31.90625 9.367188 31.90625 10.878906 C 31.90625 12.386719 30.769531 13.515625 29.234375 13.515625 C 27.539062 13.515625 26.351562 12.304688 26.351562 10.824219 Z M 30.328125 11.503906 C 30.328125 10.347656 29.761719 8.664062 28.867188 8.664062 C 28.234375 8.664062 27.898438 9.207031 27.898438 10.21875 C 27.898438 11.304688 28.464844 13.050781 29.421875 13.050781 C 29.992188 13.050781 30.328125 12.484375 30.328125 11.503906 Z M 30.328125 11.503906 "/>
<path style=" stroke:none;fill-rule:nonzero;fill:rgb(0%,0%,0%);fill-opacity:1;" d="M 36.671875 6.855469 C 36.671875 7.109375 36.480469 7.410156 36.082031 7.410156 C 34.933594 7.410156 35.597656 6.066406 34.777344 6.058594 C 34.019531 6.058594 34.273438 7.484375 34.546875 8.304688 L 35.828125 8.304688 C 35.945312 8.304688 36.039062 8.398438 36.039062 8.515625 L 36.039062 8.71875 C 36.039062 8.835938 35.945312 8.917969 35.828125 8.917969 L 34.585938 8.917969 L 34.585938 12.378906 C 34.585938 12.835938 35.113281 12.921875 35.113281 13.1875 L 35.113281 13.230469 C 35.113281 13.335938 35.03125 13.410156 34.914062 13.410156 L 32.863281 13.410156 C 32.726562 13.410156 32.640625 13.335938 32.640625 13.230469 L 32.640625 13.1875 C 32.640625 12.921875 33.0625 12.835938 33.0625 12.378906 L 33.0625 8.921875 L 32.316406 8.921875 C 32.1875 8.921875 32.09375 8.835938 32.09375 8.71875 L 32.09375 8.515625 C 32.09375 8.398438 32.1875 8.304688 32.316406 8.304688 L 33.0625 8.304688 L 33.0625 7.632812 C 33.0625 6.503906 33.703125 5.609375 35.082031 5.609375 C 35.957031 5.609375 36.671875 6.183594 36.671875 6.855469 Z M 36.671875 6.855469 "/>
<path style=" stroke:none;fill-rule:nonzero;fill:rgb(0%,0%,0%);fill-opacity:1;" d="M 10.898438 18.527344 L 10.898438 21.316406 C 10.898438 21.761719 11.308594 21.867188 11.308594 22.125 L 11.308594 22.15625 C 11.308594 22.273438 11.238281 22.335938 11.101562 22.335938 L 9.804688 22.335938 C 9.667969 22.335938 9.566406 22.242188 9.566406 22.101562 L 9.566406 21.847656 C 9.238281 22.242188 8.722656 22.441406 8.175781 22.441406 C 6.890625 22.441406 5.703125 21.484375 5.703125 19.773438 C 5.703125 18.195312 6.839844 17.121094 8.1875 17.121094 C 8.785156 17.121094 9.238281 17.335938 9.566406 17.664062 L 9.566406 17.453125 C 9.566406 17.25 9.742188 17.132812 10.015625 17.1875 L 11.121094 17.378906 C 11.269531 17.410156 11.34375 17.496094 11.34375 17.644531 L 11.34375 17.675781 C 11.34375 17.878906 10.898438 18.003906 10.898438 18.527344 Z M 9.417969 20.847656 L 9.417969 18.972656 C 9.417969 18.230469 8.890625 17.582031 8.269531 17.582031 C 7.628906 17.582031 7.226562 18.15625 7.207031 19.144531 C 7.164062 20.3125 7.648438 21.953125 8.523438 21.984375 C 8.953125 21.984375 9.417969 21.601562 9.417969 20.847656 Z M 9.417969 20.847656 "/>
<path style=" stroke:none;fill-rule:nonzero;fill:rgb(0%,0%,0%);fill-opacity:1;" d="M 17.570312 19.699219 C 17.570312 21.347656 16.433594 22.441406 15.117188 22.441406 C 14.601562 22.441406 14.203125 22.292969 13.886719 22.027344 L 13.886719 23.613281 C 13.886719 24.070312 14.328125 24.15625 14.328125 24.421875 L 14.328125 24.464844 C 14.328125 24.582031 14.234375 24.644531 14.085938 24.644531 L 12.183594 24.644531 C 12.035156 24.644531 11.941406 24.582031 11.941406 24.464844 L 11.941406 24.421875 C 11.941406 24.15625 12.351562 24.070312 12.351562 23.613281 L 12.351562 18.824219 C 12.351562 18.386719 11.867188 18.355469 11.867188 18.078125 L 11.867188 18.027344 C 11.867188 17.921875 11.949219 17.835938 12.078125 17.769531 L 13.253906 17.1875 C 13.550781 17.035156 13.65625 17.175781 13.65625 17.378906 L 13.644531 17.824219 C 13.929688 17.378906 14.453125 17.121094 15.105469 17.121094 C 16.328125 17.121094 17.570312 18.015625 17.570312 19.699219 Z M 16.023438 20.335938 C 16.023438 18.996094 15.570312 17.578125 14.738281 17.578125 C 14.296875 17.578125 13.949219 17.929688 13.886719 18.441406 L 13.886719 20.476562 C 13.886719 21.316406 14.402344 21.984375 14.960938 21.984375 C 15.632812 21.984375 16.023438 21.398438 16.023438 20.335938 Z M 16.023438 20.335938 "/>
<path style=" stroke:none;fill-rule:nonzero;fill:rgb(0%,0%,0%);fill-opacity:1;" d="M 23.753906 19.699219 C 23.753906 21.347656 22.617188 22.441406 21.304688 22.441406 C 20.789062 22.441406 20.386719 22.292969 20.070312 22.027344 L 20.070312 23.613281 C 20.070312 24.070312 20.515625 24.15625 20.515625 24.421875 L 20.515625 24.464844 C 20.515625 24.582031 20.417969 24.644531 20.273438 24.644531 L 18.367188 24.644531 C 18.21875 24.644531 18.125 24.582031 18.125 24.464844 L 18.125 24.421875 C 18.125 24.15625 18.535156 24.070312 18.535156 23.613281 L 18.535156 18.824219 C 18.535156 18.386719 18.050781 18.355469 18.050781 18.078125 L 18.050781 18.027344 C 18.050781 17.921875 18.136719 17.835938 18.261719 17.769531 L 19.441406 17.1875 C 19.734375 17.035156 19.839844 17.175781 19.839844 17.378906 L 19.828125 17.824219 C 20.113281 17.378906 20.640625 17.121094 21.292969 17.121094 C 22.511719 17.121094 23.753906 18.015625 23.753906 19.699219 Z M 22.207031 20.335938 C 22.207031 18.996094 21.753906 17.578125 20.925781 17.578125 C 20.480469 17.578125 20.136719 17.929688 20.070312 18.441406 L 20.070312 20.476562 C 20.070312 21.316406 20.585938 21.984375 21.144531 21.984375 C 21.820312 21.984375 22.207031 21.398438 22.207031 20.335938 Z M 22.207031 20.335938 "/>
<path style=" stroke:none;fill-rule:nonzero;fill:rgb(0%,0%,0%);fill-opacity:1;" d="M 29.054688 20.835938 C 29.003906 21.453125 28.371094 22.441406 26.960938 22.441406 C 25.414062 22.441406 24.320312 21.359375 24.320312 19.738281 C 24.320312 18.175781 25.476562 17.132812 26.898438 17.121094 C 28.078125 17.113281 28.910156 17.675781 28.910156 18.613281 C 28.910156 19.378906 28.214844 19.972656 27.226562 20.15625 C 26.761719 20.25 26.308594 20.25 25.933594 20.21875 C 26.207031 20.898438 26.742188 21.335938 27.445312 21.335938 C 28.058594 21.335938 28.5 21.046875 28.699219 20.71875 C 28.824219 20.558594 29.078125 20.613281 29.054688 20.835938 Z M 25.71875 19.039062 C 25.71875 19.261719 25.742188 19.488281 25.785156 19.707031 C 26.109375 19.726562 26.476562 19.71875 26.75 19.65625 C 27.191406 19.570312 27.476562 19.28125 27.476562 18.546875 C 27.464844 18.035156 27.152344 17.609375 26.699219 17.609375 C 26.109375 17.613281 25.71875 18.21875 25.71875 19.039062 Z M 25.71875 19.039062 "/>
<path style=" stroke:none;fill-rule:nonzero;fill:rgb(0%,0%,0%);fill-opacity:1;" d="M 30.085938 20.601562 L 30.085938 17.847656 L 29.589844 17.847656 C 29.464844 17.847656 29.378906 17.761719 29.378906 17.632812 L 29.378906 17.453125 C 29.378906 17.3125 29.453125 17.226562 29.589844 17.226562 L 29.855469 17.226562 C 30.441406 17.226562 30.851562 16.804688 30.96875 16.175781 C 31 16.015625 31.09375 15.917969 31.210938 15.917969 L 31.421875 15.917969 C 31.566406 15.917969 31.652344 16.015625 31.652344 16.175781 L 31.664062 17.226562 L 32.871094 17.226562 C 32.988281 17.226562 33.082031 17.324219 33.082031 17.453125 L 33.082031 17.632812 C 33.085938 17.691406 33.0625 17.746094 33.023438 17.785156 C 32.984375 17.824219 32.929688 17.847656 32.871094 17.847656 L 31.664062 17.847656 L 31.664062 20.625 C 31.664062 21.050781 31.894531 21.304688 32.199219 21.304688 C 32.621094 21.304688 32.832031 21.070312 32.914062 20.824219 C 33.042969 20.644531 33.292969 20.6875 33.292969 20.890625 C 33.292969 21.65625 32.726562 22.445312 31.675781 22.445312 C 30.714844 22.441406 30.085938 21.816406 30.085938 20.601562 Z M 30.085938 20.601562 "/>
<path style=" stroke:none;fill-rule:nonzero;fill:rgb(0%,0%,0%);fill-opacity:1;" d="M 33.714844 22.15625 L 33.714844 22.113281 C 33.714844 21.847656 34.113281 21.761719 34.113281 21.304688 L 34.113281 18.898438 C 34.113281 18.429688 33.714844 18.3125 33.714844 18.078125 L 33.714844 18.046875 C 33.714844 17.953125 33.800781 17.898438 33.9375 17.824219 L 35.25 17.164062 C 35.515625 17.035156 35.683594 17.1875 35.683594 17.378906 L 35.683594 21.304688 C 35.683594 21.761719 36.125 21.847656 36.125 22.113281 L 36.125 22.15625 C 36.125 22.261719 36.03125 22.335938 35.882812 22.335938 L 33.945312 22.335938 C 33.808594 22.335938 33.714844 22.261719 33.714844 22.15625 Z M 33.863281 15.535156 C 33.863281 15.003906 34.285156 14.609375 34.902344 14.609375 C 35.523438 14.609375 35.925781 15.003906 35.925781 15.535156 C 35.925781 16.082031 35.523438 16.472656 34.902344 16.472656 C 34.285156 16.472656 33.863281 16.078125 33.863281 15.535156 Z M 33.863281 15.535156 "/>
<path style=" stroke:none;fill-rule:nonzero;fill:rgb(0%,0%,0%);fill-opacity:1;" d="M 37.195312 20.601562 L 37.195312 17.847656 L 36.699219 17.847656 C 36.574219 17.847656 36.492188 17.761719 36.492188 17.632812 L 36.492188 17.453125 C 36.492188 17.3125 36.5625 17.226562 36.699219 17.226562 L 36.964844 17.226562 C 37.554688 17.226562 37.964844 16.804688 38.078125 16.175781 C 38.109375 16.015625 38.203125 15.917969 38.320312 15.917969 L 38.53125 15.917969 C 38.679688 15.917969 38.761719 16.015625 38.761719 16.175781 L 38.773438 17.226562 L 39.984375 17.226562 C 40.101562 17.226562 40.195312 17.324219 40.195312 17.453125 L 40.195312 17.632812 C 40.195312 17.691406 40.175781 17.746094 40.136719 17.785156 C 40.09375 17.824219 40.039062 17.847656 39.984375 17.847656 L 38.773438 17.847656 L 38.773438 20.625 C 38.773438 21.050781 39.007812 21.304688 39.3125 21.304688 C 39.734375 21.304688 39.945312 21.070312 40.027344 20.824219 C 40.152344 20.644531 40.40625 20.6875 40.40625 20.890625 C 40.40625 21.65625 39.839844 22.445312 38.785156 22.445312 C 37.828125 22.441406 37.195312 21.816406 37.195312 20.601562 Z M 37.195312 20.601562 "/>
<path style=" stroke:none;fill-rule:nonzero;fill:rgb(0%,0%,0%);fill-opacity:1;" d="M 45.445312 20.835938 C 45.390625 21.453125 44.757812 22.441406 43.351562 22.441406 C 41.804688 22.441406 40.710938 21.359375 40.710938 19.738281 C 40.710938 18.175781 41.867188 17.132812 43.285156 17.121094 C 44.464844 17.113281 45.296875 17.675781 45.296875 18.613281 C 45.296875 19.378906 44.601562 19.972656 43.613281 20.15625 C 43.152344 20.25 42.699219 20.25 42.320312 20.21875 C 42.59375 20.898438 43.128906 21.335938 43.835938 21.335938 C 44.445312 21.335938 44.886719 21.046875 45.085938 20.71875 C 45.210938 20.558594 45.464844 20.613281 45.445312 20.835938 Z M 42.109375 19.039062 C 42.109375 19.261719 42.128906 19.488281 42.171875 19.707031 C 42.496094 19.726562 42.867188 19.71875 43.140625 19.65625 C 43.582031 19.570312 43.867188 19.28125 43.867188 18.546875 C 43.855469 18.035156 43.539062 17.609375 43.085938 17.609375 C 42.496094 17.613281 42.109375 18.21875 42.109375 19.039062 Z M 42.109375 19.039062 "/>
</g>
</svg>
