<svg id="Layer_1" data-name="Layer 1" xmlns="http://www.w3.org/2000/svg" viewBox="0 0 2562.46 1490.01"><path d="M569.88,535c0,81.4-57.1,136.38-123.17,136.38-29.61,0-52.34-10-69.25-28V655c0,8.46-4.23,11.64-12.16,11.64l-68.2-.53c-6.87,0-11.09-3.18-11.09-9v-1.59c0-12.68,20.61-18,20.61-40.7v-259c0-23.79-24.31-27-24.31-40.17V314c0-5.82,2.64-8.46,12.15-12.69l68.2-31.71c12.15-5.82,22.2-2.64,22.2,10.57v148c14.8-13.74,36.47-21.14,61.85-21.14C508,407,569.88,452,569.88,535ZM492.7,566.67c0-66.6-22.73-136.91-65-136.91-24.32,0-42.82,21.67-42.82,53.39v95.68c0,35.95,26.43,69.78,53.92,69.78C473.14,648.61,492.7,619.54,492.7,566.67Z"/><path d="M601,657.07V655c0-13.21,20.09-17.44,20.09-40.17V495.31c0-23.26-20.09-29.07-20.09-40.7V453c0-4.76,4.23-7.4,11.1-11.1l66.08-32.78c13.22-6.34,21.67,1.06,21.67,10.58V614.78c0,22.73,22.2,27,22.2,40.17v2.12c0,5.29-4.75,9-12.15,9H612.63C605.76,666.06,601,662.36,601,657.07Zm7.4-328.8c0-26.44,21.15-46,52.34-46s51.27,19.56,51.27,46c0,27-20.09,46.52-51.27,46.52S608.4,355.22,608.4,328.27Z"/><path d="M775.94,579.89V443H751.09c-6.34,0-10.57-4.23-10.57-10.58v-9c0-6.88,3.7-11.1,10.57-11.1h13.22c29.61,0,50.22-21.15,56-52.34,1.59-7.93,6.35-12.68,12.17-12.68h10.57c7.39,0,11.62,4.75,11.62,12.68l.53,52.34H916c5.82,0,10.58,4.76,10.58,11.1v9A10.28,10.28,0,0,1,916,443H855.23v138c0,21.15,11.63,33.84,27,33.84,21.15,0,31.72-11.63,35.95-23.79,6.34-9,19-6.87,19,3.17,0,38.06-28.54,77.18-81.41,77.18C807.66,671.34,775.94,640.15,775.94,579.89Z"/><path d="M1190.33,591.52c-2.64,30.66-34.36,79.82-105.2,79.82-77.7,0-132.68-53.92-132.68-134.27,0-77.71,58.15-129.51,129.52-130,59.2-.53,101,27.49,101,74,0,38.06-34.89,67.66-84.58,76.65-23.26,4.75-46,4.75-65,3.17,13.74,33.83,40.7,55.5,76.12,55.5,30.66,0,52.87-14.27,62.91-30.66C1178.7,577.78,1191.38,580.42,1190.33,591.52Zm-167.57-89.34a169.23,169.23,0,0,0,3.17,33.31c16.39,1,34.89.52,48.63-2.65,22.21-4.23,36.47-18.5,36.47-55-.52-25.37-16.38-46.51-39.11-46.51C1042.32,431.35,1022.76,461.48,1022.76,502.18Z"/><path d="M1324,537.6C1324,461,1386.89,407,1460.89,407c81.41,0,142.2,58.15,142.2,133.21s-57.09,131.1-134.27,131.1C1383.71,671.34,1324,611.08,1324,537.6Zm199.82,33.83c0-57.62-28.55-141.14-73.48-141.14-31.72,0-48.63,27-48.63,77.18,0,53.92,28.54,140.61,76.65,140.61C1506.88,648.08,1523.8,620.07,1523.8,571.43Z"/><path d="M1842.49,340.42c0,12.69-9.51,27.49-29.6,27.49-57.62,0-24.32-66.61-65.54-67.13-38.07,0-25.38,70.83-11.64,111.54h64.49a10.61,10.61,0,0,1,10.58,10.57v10c0,5.82-4.76,10.05-10.58,10.05h-62.37v171.8c0,22.73,26.43,27,26.43,40.17v2.12c0,5.29-4.23,9-10,9H1651.13c-6.87,0-11.1-3.7-11.1-9V655c0-13.21,21.15-17.44,21.15-40.17V443h-37.54c-6.34,0-11.1-4.23-11.1-10.05v-10c0-5.81,4.76-10.57,11.1-10.57h37.54V379c0-56,32.24-100.44,101.49-100.44C1806.55,278.57,1842.49,307.12,1842.49,340.42Z"/><path d="M547.68,920.2v138.5c0,22.2,20.61,27.49,20.61,40.18v1.58c0,5.82-3.7,9-10.57,9h-65c-6.87,0-12.16-4.76-12.16-11.63v-12.69c-16.38,19.56-42.29,29.61-69.78,29.61-64.49,0-124.22-47.58-124.22-132.69,0-78.24,57.08-131.63,124.75-131.63,30.13,0,52.87,10.58,69.25,27V866.81c0-10,9-15.86,22.73-13.21l55.51,9.51c7.4,1.59,11.1,5.82,11.1,13.21v1.59C569.88,888,547.68,894.3,547.68,920.2Zm-74.54,115.24v-93c0-37-26.43-69.24-57.62-69.24-32.25,0-52.33,28.54-53.39,77.7C360,1009,384.33,1090.42,428.2,1092,449.88,1092,473.14,1073,473.14,1035.44Z"/><path d="M882.76,978.35c0,81.94-57.1,136.39-123.17,136.39-25.9,0-46-7.4-61.86-20.62v78.76c0,22.73,22.21,27,22.21,40.18v2.11c0,5.82-4.76,9-12.16,9H612.1c-7.4,0-12.16-3.17-12.16-9v-2.11c0-13.22,20.62-17.45,20.62-40.18V935c0-21.67-24.32-23.26-24.32-37v-2.64c0-5.29,4.23-9.52,10.58-12.69L666,853.6c14.8-7.41,20.09-.53,20.09,9.51l-.53,22.2c14.27-22.2,40.7-34.89,73.48-34.89C820.37,850.42,882.76,894.83,882.76,978.35Zm-77.71,31.72c0-66.61-22.74-136.91-64.49-136.91-22.21,0-39.65,17.44-42.83,42.81v101c0,41.76,25.91,75.06,53.93,75.06C785.49,1092,805.05,1062.93,805.05,1010.07Z"/><path d="M1193.51,978.35c0,81.94-57.09,136.39-123.16,136.39-25.91,0-46-7.4-61.85-20.62v78.76c0,22.73,22.2,27,22.2,40.18v2.11c0,5.82-4.76,9-12.16,9H922.86c-7.4,0-12.16-3.17-12.16-9v-2.11c0-13.22,20.62-17.45,20.62-40.18V935c0-21.67-24.32-23.26-24.32-37v-2.64c0-5.29,4.23-9.52,10.57-12.69l59.2-29.07c14.81-7.41,20.1-.53,20.1,9.51l-.53,22.2c14.27-22.2,40.7-34.89,73.47-34.89C1131.14,850.42,1193.51,894.83,1193.51,978.35Zm-77.71,31.72c0-66.61-22.72-136.91-64.48-136.91-22.21,0-39.65,17.44-42.82,42.81v101c0,41.76,25.9,75.06,53.91,75.06C1096.25,1092,1115.8,1062.93,1115.8,1010.07Z"/><path d="M1459.88,1034.91c-2.65,30.67-34.36,79.83-105.2,79.83-77.71,0-132.68-53.92-132.68-134.27,0-77.71,58.14-129.52,129.51-130.05,59.2-.52,101,27.49,101,74,0,38.06-34.88,67.67-84.58,76.65-23.25,4.76-46,4.76-65,3.18,13.74,33.83,40.7,55.5,76.12,55.5,30.65,0,52.86-14.28,62.91-30.66C1448.24,1021.17,1460.93,1023.81,1459.88,1034.91ZM1292.3,945.58a169.81,169.81,0,0,0,3.17,33.3c16.39,1,34.89.53,48.63-2.64,22.21-4.23,36.48-18.5,36.48-55-.53-25.37-16.38-46.52-39.12-46.52C1311.86,874.74,1292.3,904.87,1292.3,945.58Z"/><path d="M1511.63,1023.29V886.37h-24.85c-6.34,0-10.57-4.23-10.57-10.57v-9c0-6.87,3.7-11.1,10.57-11.1H1500c29.6,0,50.21-21.14,56-52.33,1.59-7.93,6.34-12.69,12.16-12.69h10.57c7.4,0,11.63,4.76,11.63,12.69l.53,52.33h60.79c5.82,0,10.57,4.76,10.57,11.1v9a10.27,10.27,0,0,1-10.57,10.57h-60.79v138c0,21.14,11.63,33.83,27,33.83,21.14,0,31.72-11.62,35.94-23.79,6.35-9,19-6.87,19,3.18,0,38.06-28.54,77.18-81.4,77.18C1543.34,1114.74,1511.63,1083.55,1511.63,1023.29Z"/><path d="M1694,1100.46v-2.11c0-13.22,20.09-17.45,20.09-40.18V938.71c0-23.26-20.09-29.08-20.09-40.71v-1.58c0-4.76,4.23-7.41,11.11-11.11l66.07-32.77c13.22-6.35,21.67,1.06,21.67,10.57v195.06c0,22.73,22.21,27,22.21,40.18v2.11c0,5.29-4.76,9-12.16,9h-97.27C1698.7,1109.45,1694,1105.75,1694,1100.46Zm7.4-328.8c0-26.43,21.15-46,52.33-46s51.28,19.56,51.28,46c0,27-20.09,46.52-51.28,46.52S1701.35,798.62,1701.35,771.66Z"/><path d="M1868.89,1023.29V886.37H1844c-6.34,0-10.57-4.23-10.57-10.57v-9c0-6.87,3.7-11.1,10.57-11.1h13.22c29.6,0,50.22-21.14,56-52.33,1.59-7.93,6.35-12.69,12.16-12.69H1936c7.39,0,11.62,4.76,11.62,12.69l.54,52.33H2009c5.82,0,10.58,4.76,10.58,11.1v9A10.28,10.28,0,0,1,2009,886.37h-60.78v138c0,21.14,11.62,33.83,27,33.83,21.15,0,31.72-11.62,35.95-23.79,6.34-9,19-6.87,19,3.18,0,38.06-28.54,77.18-81.41,77.18C1900.61,1114.74,1868.89,1083.55,1868.89,1023.29Z"/><path d="M2283.28,1034.91c-2.64,30.67-34.36,79.83-105.2,79.83-77.71,0-132.68-53.92-132.68-134.27,0-77.71,58.15-129.52,129.51-130.05,59.21-.52,101,27.49,101,74,0,38.06-34.89,67.67-84.58,76.65-23.26,4.76-46,4.76-65,3.18,13.74,33.83,40.7,55.5,76.12,55.5,30.66,0,52.86-14.28,62.9-30.66C2271.65,1021.17,2284.34,1023.81,2283.28,1034.91Zm-167.57-89.33a169.05,169.05,0,0,0,3.17,33.3c16.39,1,34.89.53,48.63-2.64,22.21-4.23,36.48-18.5,36.48-55-.53-25.37-16.39-46.52-39.12-46.52C2135.27,874.74,2115.71,904.87,2115.71,945.58Z"/></svg>